<svg width="128" height="128" version="1.1" viewBox="0 0 128 128" xmlns="http://www.w3.org/2000/svg">
 <path d="m59.2 108c16.4-2.91 30-5.31 30.2-5.34l0.284-0.0602-15.5-18.5c-8.54-10.2-15.5-18.5-15.5-18.6 0-0.0911 16-44.2 16.1-44.4 0.0302-0.0524 10.9 18.8 26.4 45.7 14.5 25.2 26.5 45.9 26.6 46.1l0.202 0.353-98.7-0.012 29.9-5.28zm-59.2-5.63c0-0.026 7.32-12.7 16.3-28.2l16.3-28.2 18.9-15.9c10.4-8.74 19-15.9 19-15.9 0.0343-0.0127-0.103 0.332-0.305 0.767-0.202 0.435-9.46 20.3-20.6 44.1l-20.2 43.3-14.7 0.0184c-8.08 0.0102-14.7-0.00282-14.7-0.0288z" fill="#222"/>
</svg>
