<svg width="92" height="92" version="1.1" viewBox="0 0 92 92" xmlns="http://www.w3.org/2000/svg">
 <path d="m89.7 41.9-39.7-39.7a5.86 5.86 0 0 0-8.29 0l-8.25 8.25 10.5 10.5a6.97 6.97 0 0 1 7.16 1.66 6.98 6.98 0 0 1 1.65 7.21l10.1 10.1a6.97 6.97 0 0 1 7.21 1.65 6.98 6.98 0 0 1 0 9.87 6.98 6.98 0 0 1-9.87 0 6.98 6.98 0 0 1-1.52-7.59l-9.41-9.41v24.8a6.98 6.98 0 0 1 1.84 11.2 6.98 6.98 0 0 1-9.87 0 6.98 6.98 0 0 1 0-9.87 6.97 6.97 0 0 1 2.29-1.53v-25a6.94 6.94 0 0 1-2.29-1.53 6.99 6.99 0 0 1-1.51-7.63l-10.3-10.3-27.2 27.2a5.87 5.87 0 0 0 0 8.29l39.7 39.7a5.87 5.87 0 0 0 8.29 0l39.5-39.5a5.87 5.87 0 0 0 0-8.29" fill="#333"/>
</svg>
