<svg width="128" height="128" version="1.1" viewBox="0 0 128 128" xmlns="http://www.w3.org/2000/svg">
 <path class="st0" d="m64 2.561c28.87 0 52.27 10.96 52.27 24.46 0 13.51-23.41 24.46-52.27 24.46s-52.27-10.96-52.27-24.46 23.41-24.46 52.27-24.46zm-52.27 81.83v18.78c9.3 33.03 101.2 26.65 104.6-1.69v-18.76c-4.59 31.11-97.2 33.35-104.6 1.67zm-0.26-48.89v18.34c9.3 32.26 101.7 27.9 105.1 0.23v-18.33c-4.6 30.39-97.72 30.7-105.1-0.24zm0 23.7v18.78c9.3 33.03 101.7 28.57 105.1 0.23v-18.76c-4.6 31.11-97.72 31.43-105.1-0.25z" fill="#333"/>
</svg>
